<svg width="64" height="64" viewBox="0 0 64 64" fill="none" xmlns="http://www.w3.org/2000/svg">
<path d="M32.0001 64C49.625 64 64 49.6247 64 31.9999C64 14.375 49.625 0 32.0001 0C14.375 0 0 14.375 0 31.9999C0 49.6247 14.375 64 32.0001 64Z" fill="#BBDEFB"/>
<path d="M42.1757 22.5231C42.0695 22.5231 41.9618 22.4991 41.8611 22.4481C41.515 22.2741 41.3752 21.8522 41.5492 21.5058C43.5738 17.4838 46.4255 13.602 47.1972 12.8306C47.7297 12.2982 48.4363 12.003 49.1881 12C49.1916 12 49.1957 12 49.1998 12C49.9488 12 50.6513 12.2906 51.1791 12.8187C51.4532 13.0928 51.4532 13.5372 51.1791 13.8111C50.9049 14.0852 50.4608 14.0852 50.1867 13.8111C49.922 13.5465 49.5541 13.4016 49.1936 13.4036C48.8152 13.4053 48.4589 13.5544 48.1896 13.8234C47.6256 14.3871 44.8452 18.0798 42.8035 22.137C42.6802 22.382 42.4327 22.5231 42.1757 22.5231Z" fill="#FF5B61"/>
<path d="M44.2818 16.2107H34.6477C33.531 16.2107 32.46 16.6543 31.6703 17.444L12.4126 36.7015C11.8644 37.2497 11.8644 38.1383 12.4126 38.6865L25.3149 51.5887C25.8631 52.1369 26.7517 52.1369 27.2998 51.5887L46.5574 32.3311C47.3471 31.5415 47.7907 30.4705 47.7907 29.3537V19.7196C47.7908 17.7817 46.2197 16.2107 44.2818 16.2107ZM43.6652 23.3137C42.8429 24.1359 41.5099 24.1359 40.6878 23.3137C39.8655 22.4914 39.8655 21.1584 40.6878 20.3362C41.51 19.5141 42.8431 19.514 43.6652 20.3362C44.4873 21.1585 44.4874 22.4916 43.6652 23.3137Z" fill="#57697D"/>
<path d="M14.5191 38.808L33.7766 19.5504C34.5663 18.7608 35.6373 18.3171 36.754 18.3171H46.3882C46.8056 18.3171 47.2002 18.4026 47.5715 18.5362C47.0845 17.1835 45.8023 16.2107 44.2818 16.2107H34.6477C33.531 16.2107 32.46 16.6543 31.6703 17.444L12.4126 36.7015C11.8644 37.2497 11.8644 38.1383 12.4126 38.6865L14.519 40.7929C13.9709 40.2449 13.9709 39.3562 14.5191 38.808Z" fill="#233952"/>
<path d="M42.1775 22.5231C41.9204 22.5231 41.6731 22.382 41.5497 22.1366C41.3757 21.7905 41.5154 21.3687 41.8616 21.1943C45.9182 19.1537 49.6108 16.3726 50.1749 15.8084C50.4442 15.5391 50.593 15.1827 50.595 14.8045C50.5964 14.4282 50.4517 14.0755 50.1872 13.8111C49.9228 13.5466 49.5547 13.4016 49.1942 13.4036C48.8158 13.4053 48.4595 13.5544 48.1902 13.8234C47.9161 14.0975 47.4719 14.0975 47.1978 13.8234C46.9236 13.5496 46.9236 13.1051 47.1978 12.8309C47.7301 12.2981 48.4367 12.003 49.1886 12C49.192 12 49.1961 12 49.2002 12C49.9493 12 50.6518 12.2906 51.1795 12.8187C51.7107 13.3495 52.0012 14.0567 51.9985 14.8099C51.995 15.5613 51.7004 16.2684 51.1671 16.8009C50.3961 17.5726 46.5136 20.425 42.492 22.4484C42.3913 22.4991 42.283 22.5231 42.1775 22.5231Z" fill="#FF5B61"/>
<path d="M38.3658 31.9813C36.9658 28.2626 32.4158 29.9251 32.0001 31.7845C31.4314 29.8157 26.9908 28.3501 25.6345 31.9813C24.1251 36.0282 31.4751 39.6595 32.0001 40.2501C32.5251 39.7688 39.8751 35.9626 38.3658 31.9813Z" fill="#E5E5E5"/>
</svg>
