<svg width="64" height="64" viewBox="0 0 64 64" fill="none" xmlns="http://www.w3.org/2000/svg">
<path d="M32.0001 64C49.625 64 64 49.6247 64 31.9999C64 14.375 49.625 0 32.0001 0C14.375 0 0 14.375 0 31.9999C0 49.6247 14.375 64 32.0001 64Z" fill="#BBDEFB"/>
<path d="M31.6107 19.2765L29.6758 16.757C29.4302 16.4376 29.0501 16.25 28.6472 16.25H16.9278C16.2115 16.25 15.6309 16.8306 15.6309 17.5469V37.1595H48.369V21.0801C48.369 20.3638 47.7884 19.7832 47.0721 19.7832H32.6391C32.2361 19.7832 31.856 19.5959 31.6107 19.2765Z" fill="#233952"/>
<path d="M32.6393 19.7832C32.2364 19.7832 31.8563 19.5959 31.611 19.2762L29.6761 16.757C29.4305 16.4373 29.0504 16.25 28.6475 16.25H25.657L28.1553 19.5028C28.291 19.6797 28.5013 19.7832 28.7244 19.7832H32.6393Z" fill="#57697D"/>
<path d="M45.3249 45.6542H18.6748C18.3037 45.6542 18.0027 45.3534 18.0027 44.9821V23.0037C18.0027 22.6323 18.3037 22.3313 18.6748 22.3313H45.3249C45.6959 22.3313 45.9969 22.6323 45.9969 23.0037V44.9821C45.9969 45.3534 45.6959 45.6542 45.3249 45.6542Z" fill="#FF5B61"/>
<path d="M49.0131 47.7995H14.9868C14.4419 47.7995 14 47.3576 14 46.8127V27.7674C14 27.2224 14.4419 26.7805 14.9868 26.7805H49.0131C49.558 26.7805 49.9999 27.2222 49.9999 27.7674V46.8127C49.9999 47.3576 49.558 47.7995 49.0131 47.7995Z" fill="#57697D"/>
<path d="M28.6476 36.86V34.4007C28.6476 32.552 30.1516 31.0482 32.0001 31.0482C33.8485 31.0482 35.3525 32.552 35.3525 34.4007V36.86H36.4391V34.4007C36.4391 31.9529 34.4478 29.9617 32.0001 29.9617C29.5523 29.9617 27.561 31.9529 27.561 34.4007V36.86H28.6476Z" fill="#EDEDED"/>
<path d="M36.8965 44.6606H27.1038C26.8368 44.6606 26.6201 44.4438 26.6201 44.1766V37.1734C26.6201 36.9064 26.8368 36.6897 27.1038 36.6897H36.8965C37.1634 36.6897 37.3801 36.9061 37.3801 37.1734V44.1766C37.3801 44.4438 37.1634 44.6606 36.8965 44.6606Z" fill="#FFE471"/>
<path d="M45.9972 26.7805V23.0034C45.9972 22.6323 45.6962 22.3313 45.3251 22.3313H42.3486V26.7805H45.9972Z" fill="#FF5B61"/>
<path d="M29.4739 42.2877C29.7741 42.2877 30.0172 42.0446 30.0172 41.7444V40.0772C30.0172 39.7773 29.7741 39.5339 29.4739 39.5339C29.174 39.5339 28.9309 39.7773 28.9309 40.0772V41.7444C28.9306 42.0446 29.174 42.2877 29.4739 42.2877Z" fill="#FFE471"/>
<path d="M31.9998 42.2877C32.2997 42.2877 32.5431 42.0446 32.5431 41.7444V40.0772C32.5431 39.7773 32.2997 39.5339 31.9998 39.5339C31.6999 39.5339 31.4565 39.7773 31.4565 40.0772V41.7444C31.4565 42.0446 31.6999 42.2877 31.9998 42.2877Z" fill="#FFE471"/>
<path d="M34.5259 42.2877C34.8259 42.2877 35.0689 42.0446 35.0689 41.7444V40.0772C35.0689 39.7773 34.8259 39.5339 34.5259 39.5339C34.2257 39.5339 33.9827 39.7773 33.9827 40.0772V41.7444C33.9827 42.0446 34.2257 42.2877 34.5259 42.2877Z" fill="#FFE471"/>
</svg>
