<svg width="80" height="80" viewBox="0 0 80 80" fill="none" xmlns="http://www.w3.org/2000/svg">
<path d="M40 80C62.0914 80 80 62.0914 80 40C80 17.9086 62.0914 0 40 0C17.9086 0 0 17.9086 0 40C0 62.0914 17.9086 80 40 80Z" fill="#BBDEFB"/>
<path d="M43.4778 54.5874L33.5039 57.6055L33.183 58.7272C32.7273 60.3238 30.9959 61.6297 29.3359 61.6297V62.3842H47.6458V61.6297L43.4778 54.5874Z" fill="#233952"/>
<path d="M46.8165 58.7273L45.6334 54.5874L39.9996 51.5693L34.3658 54.5874L33.5037 57.6056H43.4775L43.7984 58.7273C44.2542 60.3239 45.9856 61.6297 47.6455 61.6297L49.1546 62.3842L50.6636 61.6297C49.0037 61.6297 47.2723 60.3239 46.8165 58.7273Z" fill="#233952"/>
<path d="M55.5938 63.1387H24.4066C23.9899 63.1387 23.6521 62.8009 23.6521 62.3842C23.6521 61.9675 23.9899 61.6296 24.4066 61.6296H55.5938C56.0105 61.6296 56.3483 61.9675 56.3483 62.3842C56.3483 62.8009 56.0105 63.1387 55.5938 63.1387Z" fill="#233952"/>
<path d="M61.9817 16.8611H58.9636V54.5874H61.9817C63.6417 54.5874 64.9998 53.2293 64.9998 51.5693V19.8792C64.9998 18.2192 63.6417 16.8611 61.9817 16.8611Z" fill="#57697D"/>
<path d="M58.9638 16.8611H18.0181C16.3581 16.8611 15 18.2192 15 19.8792V51.5693C15 53.2293 16.3581 54.5874 18.0181 54.5874H58.9638C60.6237 54.5874 61.9819 53.2293 61.9819 51.5693V48.5512L40 34.2152L61.9819 19.8792C61.9819 18.2192 60.6237 16.8611 58.9638 16.8611Z" fill="#57697D"/>
<path d="M61.9819 19.8792L58.9644 19.8765C58.9643 19.8772 40 34.2125 40 34.2125C40 34.2125 58.964 48.5482 58.9638 48.5485L61.9818 48.546C61.9819 48.5461 61.9816 19.8798 61.9819 19.8792Z" fill="#FF5B61"/>
<path d="M58.964 19.8792L18.0272 19.8765C18.0247 19.8779 18.0226 48.5479 18.0183 48.5485C18.0183 48.5485 58.962 48.546 58.963 48.546C58.9635 48.5461 58.9598 19.8798 58.964 19.8792Z" fill="#FF5B61"/>
<path d="M62.0502 52.3211C62.4669 52.3211 62.8047 51.9833 62.8047 51.5665C62.8047 51.1498 62.4669 50.812 62.0502 50.812C61.6335 50.812 61.2957 51.1498 61.2957 51.5665C61.2957 51.9833 61.6335 52.3211 62.0502 52.3211Z" fill="#85CF75"/>
<path d="M59.0321 52.3211C59.4488 52.3211 59.7866 51.9833 59.7866 51.5665C59.7866 51.1498 59.4488 50.812 59.0321 50.812C58.6154 50.812 58.2776 51.1498 58.2776 51.5665C58.2776 51.9833 58.6154 52.3211 59.0321 52.3211Z" fill="#3D5168"/>
<path d="M41.6913 36.5687L43.5419 42.0051L41.3283 42.8905L39.1944 37.4771L35.5005 40.2715L36.8198 27.0708L46.3167 36.3349L41.6913 36.5687Z" fill="white"/>
</svg>
