<svg width="64" height="64" viewBox="0 0 64 64" fill="none" xmlns="http://www.w3.org/2000/svg">
<path d="M32.0001 64C49.625 64 64 49.6247 64 31.9999C64 14.375 49.625 0 32.0001 0C14.375 0 0 14.375 0 31.9999C0 49.6247 14.375 64 32.0001 64Z" fill="#BBDEFB"/>
<g clip-path="url(#clip0)">
<path d="M14 45.7449V19.2527C14 18.8526 14.3243 18.5283 14.7243 18.5283H49.2756C49.6757 18.5283 50 18.8526 50 19.2527V45.7448C50 46.1449 49.6757 46.4692 49.2756 46.4692H14.7243C14.3243 46.4692 14 46.1449 14 45.7449V45.7449Z" fill="#233952"/>
<path d="M16.2207 44.2524H47.7763V20.7454H16.2207V44.2524Z" fill="#57697D"/>
<path d="M20.6854 26H44.3146C44.6932 26 45 25.7761 45 25.5C45 25.2239 44.6932 25 44.3146 25H20.6854C20.3068 25 20 25.2239 20 25.5C20 25.7761 20.3068 26 20.6854 26V26Z" fill="white"/>
<path d="M35.639 28H20.3609C20.1616 28 20 28.2239 20 28.5C20 28.7761 20.1616 29 20.3609 29H35.6391C35.8384 29 36 28.7761 36 28.5C36 28.2239 35.8384 28 35.639 28Z" fill="white"/>
<path d="M33.4626 31H20.5374C20.2406 31 20 31.2239 20 31.5C20 31.7761 20.2406 32 20.5374 32H33.4626C33.7594 32 34 31.7761 34 31.5C34 31.2239 33.7594 31 33.4626 31Z" fill="white"/>
<path d="M29.7441 39.4673C28.822 39.4698 27.8999 39.472 26.9778 39.4735C26.6816 39.474 26.3853 39.4744 26.0891 39.4746C25.8625 39.4748 25.6179 39.5148 25.4264 39.3685C25.212 39.2048 25.1383 38.9736 25.0893 38.7189C24.983 38.1673 24.1874 38.2376 24.0416 38.7189C23.977 38.9321 23.6511 39.5423 23.3663 39.4924C23.2154 39.466 23.1495 39.2333 23.0938 39.1127C22.9852 38.8781 22.9061 38.6294 22.8384 38.3803C22.5524 37.3275 22.4953 36.2283 22.3164 35.1557C22.2127 34.5337 21.2646 34.7096 21.2493 35.3001C21.2006 37.1813 20.893 39.0367 20.2233 40.8C19.9748 41.4543 21.0247 41.7372 21.271 41.0889C21.5292 40.409 21.7342 39.7128 21.8933 39.0063C21.9786 39.2638 22.0804 39.5163 22.2046 39.7619C22.5219 40.3889 23.1689 40.7598 23.8613 40.4809C24.1083 40.3814 24.3338 40.2074 24.5256 39.9957C24.5527 40.0269 24.58 40.0578 24.6086 40.0866C25.1355 40.6185 25.8285 40.5616 26.5177 40.5607C27.5932 40.5593 28.6686 40.5568 29.7441 40.5538C30.4431 40.5519 30.4444 39.4653 29.7441 39.4673V39.4673Z" fill="#FF5B61"/>
<path d="M41.7709 41.9874L40.2136 41.263L38.6562 41.9874V32.6433H41.7709V41.9874Z" fill="#FFE471"/>
<path d="M40.212 38.9339C39.6624 38.9339 39.3026 37.9985 38.8247 37.8C38.3293 37.5942 37.4164 37.9929 37.0431 37.6189C36.6697 37.2449 37.0678 36.3303 36.8623 35.834C36.6642 35.3553 35.7305 34.9948 35.7305 34.4442C35.7305 33.8937 36.6642 33.5332 36.8623 33.0544C37.0678 32.5582 36.6697 31.6435 37.0431 31.2696C37.4164 30.8956 38.3293 31.2943 38.8247 31.0886C39.3025 30.89 39.6624 29.9546 40.2119 29.9546C40.7615 29.9546 41.1213 30.89 41.5992 31.0886C42.0946 31.2943 43.0075 30.8956 43.3809 31.2696C43.7542 31.6436 43.3562 32.5583 43.5616 33.0545C43.7598 33.5332 44.6935 33.8937 44.6935 34.4443C44.6935 34.9948 43.7598 35.3553 43.5616 35.8341C43.3562 36.3304 43.7542 37.245 43.3809 37.619C43.0075 37.9929 42.0946 37.5942 41.5993 37.8C41.1214 37.9985 40.7616 38.9339 40.212 38.9339Z" fill="#FF5B61"/>
<path d="M40.2154 36.023C41.0872 36.023 41.794 35.3162 41.794 34.4444C41.794 33.5725 41.0872 32.8657 40.2154 32.8657C39.3435 32.8657 38.6367 33.5725 38.6367 34.4444C38.6367 35.3162 39.3435 36.023 40.2154 36.023Z" fill="#FFE471"/>
</g>
<defs>
<clipPath id="clip0">
<rect width="36" height="36" fill="white" transform="translate(14 14)"/>
</clipPath>
</defs>
</svg>
