<svg width="80" height="80" viewBox="0 0 80 80" fill="none" xmlns="http://www.w3.org/2000/svg">
<path d="M40 80C62.0914 80 80 62.0914 80 40C80 17.9086 62.0914 0 40 0C17.9086 0 0 17.9086 0 40C0 62.0914 17.9086 80 40 80Z" fill="#BBDEFB"/>
<path d="M54.9485 24.1602H48.3567V17.5684C48.3567 16.83 47.7767 16.25 47.0383 16.25H25.9863C23.7977 16.25 22.0312 18.0165 22.0312 20.2051V57.2949C22.0312 59.4833 23.7977 61.25 25.9863 61.25H52.3118C54.5004 61.25 56.2668 59.4833 56.2668 57.2949V25.4785C56.2668 24.7401 55.6869 24.1602 54.9485 24.1602Z" fill="#F6F9FF"/>
<path d="M56.2666 26.7969H47.0381C46.3094 26.7969 45.7197 26.2072 45.7197 25.4785V16.25H48.5933C49.6284 16.25 50.6429 16.6697 51.3743 17.4022L55.1156 21.1449C55.8468 21.8788 56.2666 22.8907 56.2666 23.9232V26.7969Z" fill="#ABD4EC"/>
<path d="M41.7646 47.8906H39.1279V45.2539H41.7646C43.5047 45.2539 43.5047 47.8906 41.7646 47.8906Z" fill="#1689FC"/>
<path d="M41.7646 42.6172H39.1279V39.9805H41.7646C43.5047 39.9805 43.5047 42.6172 41.7646 42.6172Z" fill="#1689FC"/>
<path d="M41.7646 37.3438H39.1279V34.707H41.7646C43.5047 34.707 43.5047 37.3438 41.7646 37.3438Z" fill="#1689FC"/>
<path d="M47.0381 55.9766H39.1279V53.3398H47.0381C48.7781 53.3398 48.7781 55.9766 47.0381 55.9766Z" fill="#1689FC"/>
<path d="M47.0386 32.0703H39.1284V29.4336H47.0386C48.7786 29.4336 48.7786 32.0703 47.0386 32.0703Z" fill="#1689FC"/>
<path d="M56.2668 25.4785V57.2949C56.2668 59.4833 54.5004 61.25 52.3118 61.25H39.1282V16.25H47.0383C47.7767 16.25 48.3567 16.83 48.3567 17.5684V24.1602H54.9485C55.6869 24.1602 56.2668 24.7401 56.2668 25.4785Z" fill="#F6F9FF"/>
<path d="M41.7649 37.3438H28.6231C26.8831 37.3438 26.8831 34.707 28.6231 34.707H41.7649C43.505 34.707 43.505 37.3438 41.7649 37.3438Z" fill="#FF5B61"/>
<path d="M41.7649 42.6172H28.6231C26.8831 42.6172 26.8831 39.9805 28.6231 39.9805H41.7649C43.505 39.9805 43.505 42.6172 41.7649 42.6172Z" fill="#FF5B61"/>
<path d="M41.7649 47.8906H28.6231C26.8831 47.8906 26.8831 45.2539 28.6231 45.2539H41.7649C43.505 45.2539 43.505 47.8906 41.7649 47.8906Z" fill="#FF5B61"/>
<path d="M47.0384 55.9766H39.1282C37.3882 55.9766 37.3882 53.3398 39.1282 53.3398H47.0384C48.7784 53.3398 48.7784 55.9766 47.0384 55.9766Z" fill="#FF5B61"/>
<path d="M47.0391 32.0703H28.6238C26.8839 32.0703 26.8839 29.4336 28.6238 29.4336H47.0391C48.7792 29.4336 48.7792 32.0703 47.0391 32.0703Z" fill="#FF5B61"/>
<path d="M50.7484 52.1602L48.7424 54.1661L58.1759 63.5996C58.6367 64.0604 59.3957 64.0604 59.8566 63.5996L60.1819 63.2743C60.6427 62.8135 60.6427 62.0545 60.1819 61.5936L50.7484 52.1602Z" fill="#2B3B4E"/>
<path d="M52.5301 57.9688L57.3604 62.7991L59.373 60.7864L54.5427 55.9562L52.5301 57.9688Z" fill="#57697D"/>
<path d="M46.2484 58.151C50.9343 58.151 54.7331 54.3523 54.7331 49.6663C54.7331 44.9804 50.9343 41.1816 46.2484 41.1816C41.5624 41.1816 37.7637 44.9804 37.7637 49.6663C37.7637 54.3523 41.5624 58.151 46.2484 58.151Z" fill="#57697D"/>
<path d="M46.2484 55.8469C49.6618 55.8469 52.429 53.0798 52.429 49.6664C52.429 46.253 49.6618 43.4858 46.2484 43.4858C42.835 43.4858 40.0679 46.253 40.0679 49.6664C40.0679 53.0798 42.835 55.8469 46.2484 55.8469Z" fill="#84DBFF"/>
<path d="M43.592 52.7566C43.4565 52.8921 43.2667 52.8921 43.1312 52.7566C41.4234 51.0488 41.4234 48.2567 43.1312 46.5489C43.2667 46.4134 43.4565 46.4134 43.592 46.5489C43.7275 46.6845 43.7275 46.8742 43.592 47.0098C42.1282 48.4736 42.1282 50.859 43.592 52.2957C43.7275 52.4313 43.7275 52.6481 43.592 52.7566Z" fill="white"/>
</svg>
