<svg width="64" height="64" viewBox="0 0 64 64" fill="none" xmlns="http://www.w3.org/2000/svg">
<path d="M32.0001 64C49.625 64 64 49.6247 64 31.9999C64 14.375 49.625 0 32.0001 0C14.375 0 0 14.375 0 31.9999C0 49.6247 14.375 64 32.0001 64Z" fill="#BBDEFB"/>
<path d="M47.5515 31.1572L47.9303 37.7779C45.7775 41.4269 38.9056 44.1353 32.1395 44.0665C25.6917 44.0012 19.3306 41.3261 17.5817 37.9568L17.5461 31.4703L31.9523 35.4473L47.5515 31.1577V31.1572Z" fill="#233952"/>
<path d="M8.65845 28.8536L31.9518 20.9844L55.2455 28.8536L31.9518 36.7226L8.65845 28.8536Z" fill="#57697D"/>
<path d="M16.9381 44.9629L15.8717 51.7922C15.8546 51.9032 16.2296 52.0542 16.4087 51.8317C16.6439 52.1134 16.9556 51.998 17.0489 51.8032C17.167 51.9965 17.4452 52.1031 17.6471 51.8146C17.8261 52.0371 18.2261 51.8823 18.1968 51.6956L17.137 44.9566C17.1102 44.8562 16.9524 44.8733 16.9386 44.9625L16.9381 44.9629Z" fill="#FF5B61"/>
<path d="M32.1111 26.8605C32.2518 26.8186 32.4003 26.8985 32.4422 27.0395C32.4841 27.1802 32.4042 27.3287 32.2632 27.3706L17.2817 31.875V44.9391C17.2817 45.0862 17.1624 45.2055 17.0154 45.2055C16.8683 45.2055 16.749 45.0862 16.749 44.9391V31.6771C16.749 31.5624 16.8237 31.4565 16.9391 31.4222L32.1106 26.8604H32.1111V26.8605Z" fill="white"/>
<path d="M17.0348 45.8315C17.6169 45.8315 18.0919 45.3565 18.0919 44.774C18.0919 44.1916 17.6169 43.717 17.0348 43.717C16.4523 43.717 15.9778 44.1921 15.9778 44.774C15.9778 45.3566 16.4528 45.8315 17.0348 45.8315Z" fill="white"/>
<path d="M17.8919 44.5048C17.8919 44.9474 17.6105 45.3236 17.2174 45.4654C17.1091 45.5041 16.9929 45.5255 16.8712 45.5255C16.8644 45.5255 16.8578 45.5255 16.8515 45.5255C16.5033 45.5187 16.1979 45.3377 16.0188 45.0667C16.1252 45.4366 16.4281 45.7234 16.8075 45.8069C16.8805 45.8227 16.9568 45.8314 17.0351 45.8314C17.1157 45.8314 17.1948 45.8224 17.2706 45.8049C17.7412 45.6978 18.0921 45.2773 18.0921 44.774C18.0921 44.4721 17.9657 44.2002 17.7634 44.0073C17.8452 44.1544 17.8922 44.3238 17.8922 44.5045L17.8919 44.5048Z" fill="white"/>
</svg>
