<svg width="64" height="64" viewBox="0 0 64 64" fill="none" xmlns="http://www.w3.org/2000/svg">
<path d="M32.0001 64C49.625 64 64 49.6247 64 31.9999C64 14.375 49.625 0 32.0001 0C14.375 0 0 14.375 0 31.9999C0 49.6247 14.375 64 32.0001 64Z" fill="#BBDEFB" fill-opacity="0.8"/>
<rect x="15" y="22" width="34.9857" height="21.75" rx="3" fill="#57697D"/>
<path d="M15 36.25H49.9857V40H15V36.25Z" fill="#FF5B61"/>
<path d="M18.1099 30.25H27.7351V33.1283H18.1099V30.25Z" fill="#E2E8ED"/>
<path d="M39 33.2366C40.8107 31.7408 43.1161 30.9187 45.5 30.9187C47.8839 30.9187 50.1892 31.7408 52 33.2366V37.2203C51.9999 38.7856 51.5734 40.3234 50.7631 41.6796C49.9529 43.0358 48.7874 44.1628 47.3835 44.9476L45.5 46L43.6165 44.9476C42.2125 44.1628 41.047 43.0358 40.2368 41.6796C39.4266 40.3234 39.0001 38.7856 39 37.2203V33.2366Z" fill="#44D65C"/>
<path d="M44.6912 41.0433C44.5786 41.0434 44.4672 41.022 44.3632 40.9804C44.2592 40.9388 44.1647 40.8778 44.0853 40.8009L42.4016 39.1767C42.3197 39.1005 42.2544 39.0092 42.2094 38.9083C42.1645 38.8075 42.1408 38.6989 42.1398 38.5891C42.1388 38.4793 42.1605 38.3704 42.2035 38.2688C42.2466 38.1672 42.3103 38.0748 42.3907 37.9971C42.4712 37.9195 42.5669 37.8581 42.6723 37.8165C42.7776 37.7749 42.8905 37.7539 43.0043 37.7548C43.1181 37.7558 43.2306 37.7786 43.3352 37.8219C43.4398 37.8652 43.5344 37.9282 43.6135 38.0072L44.6912 39.0468L47.7284 36.1169C47.8891 35.9618 48.1072 35.8747 48.3346 35.8747C48.5619 35.8747 48.78 35.9618 48.9408 36.1169C49.1015 36.272 49.1919 36.4824 49.1919 36.7017C49.1919 36.9211 49.1015 37.1314 48.9408 37.2865L45.2952 40.8033C45.1348 40.9573 44.9176 41.0436 44.6912 41.0433Z" fill="white"/>
</svg>
